<?xml version="1.0" encoding="UTF-8"?>
<svg width="24" height="24" viewBox="0 0 24 24" fill="none" xmlns="http://www.w3.org/2000/svg">
  <path d="M7.08 10.4698C10.02 7.5298 14.88 7.5298 17.82 10.4698L18.24 10.8898C18.42 11.0698 18.42 11.3698 18.24 11.5498L17.04 12.7498C16.95 12.8398 16.8 12.8398 16.71 12.7498L16.14 12.1798C14.04 10.0798 10.86 10.0798 8.76 12.1798L8.16 12.7798C8.07 12.8698 7.92 12.8698 7.83 12.7798L6.63 11.5798C6.45 11.3998 6.45 11.0998 6.63 10.9198L7.08 10.4698ZM20.82 13.4698L21.9 14.5498C22.08 14.7298 22.08 15.0298 21.9 15.2098L16.83 20.2798C16.65 20.4598 16.35 20.4598 16.17 20.2798L12.72 16.8298C12.675 16.7848 12.6 16.7848 12.555 16.8298L9.105 20.2798C8.925 20.4598 8.625 20.4598 8.445 20.2798L3.36 15.1948C3.18 15.0148 3.18 14.7148 3.36 14.5348L4.44 13.4548C4.62 13.2748 4.92 13.2748 5.1 13.4548L8.55 16.9048C8.595 16.9498 8.67 16.9498 8.715 16.9048L12.165 13.4548C12.345 13.2748 12.645 13.2748 12.825 13.4548L16.275 16.9048C16.32 16.9498 16.395 16.9498 16.44 16.9048L19.89 13.4548C20.085 13.2748 20.385 13.2748 20.565 13.4548L20.82 13.4698Z" fill="#3B99FC"/>
</svg> 